<svg xmlns="http://www.w3.org/2000/svg" viewBox="0 0 100 100">
  <!-- Geometric star logo icon -->
  <polygon
    points="50,5 61,35 95,35 68,55 79,90 50,70 21,90 32,55 5,35 39,35"
    fill="none"
    stroke="currentColor"
    stroke-width="2"
    stroke-linejoin="round"
  />
  <polygon
    points="50,20 58,40 80,40 63,53 70,75 50,62 30,75 37,53 20,40 42,40"
    fill="none"
    stroke="currentColor"
    stroke-width="1.5"
    stroke-linejoin="round"
  />
  <line x1="50" y1="5" x2="50" y2="20" stroke="currentColor" stroke-width="1.5"/>
  <line x1="95" y1="35" x2="80" y2="40" stroke="currentColor" stroke-width="1.5"/>
  <line x1="79" y1="90" x2="70" y2="75" stroke="currentColor" stroke-width="1.5"/>
  <line x1="21" y1="90" x2="30" y2="75" stroke="currentColor" stroke-width="1.5"/>
  <line x1="5" y1="35" x2="20" y2="40" stroke="currentColor" stroke-width="1.5"/>
</svg>
